# xmcd
#
# Track frame offsets:
#	150
#	15053
#	26999
#	36088
#	51521
#	66954
#	80805
#	92935
#	107239
#	118133
#	135179
#
# Disc length: 2022 seconds
#
# Revision: 0
# Processed by: cddbd v1.5.1PL2 Copyright (c) Steve Scherf et al.
# Submitted via: EasyCDDAExtractor 4.6.9.1
#
DISCID=9407e40b
DTITLE=Waylon Jennings - Leather And Lace
DYEAR=1981
DGENRE=Country
TTITLE0=You Never Can Tell (C'est La Vie)
TTITLE1=Rainy Seasons
TTITLE2=I'll Be Alright
TTITLE3=Wild Side of Life
TTITLE4=Pastels And Harmony
TTITLE5=I Believe You Can
TTITLE6=What's Happened to Blue Eyes
TTITLE7=Storms Never Last
TTITLE8=I Ain't the One
TTITLE9=You're Not My Same Sweet Baby
TTITLE10=Storms Never Last (Live)
EXTD=
EXTT0=
EXTT1=
EXTT2=
EXTT3=
EXTT4=
EXTT5=
EXTT6=
EXTT7=
EXTT8=
EXTT9=
EXTT10=
PLAYORDER=
